<?xml version="1.0" encoding="utf-8"?>
<!-- Generator: Adobe Illustrator 16.0.0, SVG Export Plug-In . SVG Version: 6.00 Build 0)  -->
<!DOCTYPE svg PUBLIC "-//W3C//DTD SVG 1.1//EN" "http://www.w3.org/Graphics/SVG/1.1/DTD/svg11.dtd">
<svg version="1.1" id="Capa_1" xmlns="http://www.w3.org/2000/svg" xmlns:xlink="http://www.w3.org/1999/xlink" x="0px" y="0px"
	 width="64px" height="64px" viewBox="0 0 64 64" enable-background="new 0 0 64 64" xml:space="preserve">
<g>
	<path d="M10.965,5.325c-0.53-0.001-5.917-0.001-6.448,0c-1.61,0.006-2.452,0.848-2.457,2.451c-0.005,2.234-0.024,8.273,0.01,9.058
		c0.027,0.643,0.489,1.062,1.086,1.063c0.605,0.001,1.043-0.412,1.098-1.052c0.017-0.195,0-4.615,0.017-6.628
		c0-0.471,0.542-0.368,0.542,0.015c0,0.253,0.008,12.368,0.01,18.334c0,1.051,0.489,1.665,1.324,1.682
		c0.884,0.018,1.381-0.581,1.384-1.694c0.005-1.563,0.013-8.726,0.015-10.003c0-0.263,0.388-0.264,0.388,0
		c0.001,1.277,0.01,8.439,0.015,10.003c0.003,1.113,0.5,1.711,1.384,1.694c0.835-0.017,1.324-0.631,1.324-1.682
		c0.001-5.966,0.01-18.081,0.01-18.334c0-0.383,0.542-0.486,0.542-0.015c0.017,2.013,0,6.433,0.017,6.628
		c0.055,0.64,0.493,1.054,1.098,1.052c0.597-0.001,1.059-0.42,1.086-1.063c0.035-0.785,0.016-6.824,0.01-9.058
		C13.417,6.173,12.575,5.331,10.965,5.325z"/>
	<path d="M7.705,4.351c1.251,0.014,2.222-0.92,2.23-2.145C9.944,0.983,8.971-0.001,7.754,0C6.536,0.001,5.54,0.99,5.548,2.192
		C5.556,3.369,6.524,4.337,7.705,4.351z"/>
	<path d="M27.137,5.325c-0.531-0.001-5.917-0.001-6.448,0c-1.609,0.006-2.452,0.848-2.456,2.451
		c-0.005,2.234-0.024,8.273,0.01,9.058c0.028,0.643,0.489,1.062,1.086,1.063c0.605,0.001,1.043-0.412,1.098-1.052
		c0.017-0.195,0-4.615,0.017-6.628c0-0.471,0.542-0.368,0.542,0.015c0,0.253,0.009,12.368,0.01,18.334
		c0,1.051,0.489,1.665,1.324,1.682c0.884,0.018,1.381-0.581,1.385-1.694c0.005-1.563,0.013-8.726,0.015-10.003
		c0-0.263,0.388-0.264,0.388,0c0.001,1.277,0.01,8.439,0.014,10.003c0.003,1.113,0.5,1.711,1.385,1.694
		c0.835-0.017,1.324-0.631,1.324-1.682c0.001-5.966,0.01-18.081,0.01-18.334c0-0.383,0.542-0.486,0.542-0.015
		c0.017,2.013,0,6.433,0.017,6.628c0.055,0.64,0.492,1.054,1.098,1.052c0.597-0.001,1.059-0.42,1.086-1.063
		c0.034-0.785,0.016-6.824,0.01-9.058C29.589,6.173,28.747,5.331,27.137,5.325z"/>
	<path d="M23.876,4.351c1.25,0.014,2.222-0.92,2.23-2.145C26.116,0.983,25.142-0.001,23.926,0c-1.219,0.001-2.214,0.99-2.206,2.192
		C21.727,3.369,22.696,4.337,23.876,4.351z"/>
	<path d="M43.308,5.325c-0.53-0.001-5.916-0.001-6.447,0c-1.608,0.006-2.45,0.848-2.456,2.451c-0.006,2.234-0.023,8.273,0.011,9.058
		c0.026,0.643,0.489,1.062,1.086,1.063c0.605,0.001,1.043-0.412,1.098-1.052c0.018-0.195,0-4.615,0.018-6.628
		c0-0.471,0.542-0.368,0.542,0.015c0,0.253,0.009,12.368,0.009,18.334c0,1.051,0.489,1.665,1.325,1.682
		c0.883,0.018,1.381-0.581,1.383-1.694c0.007-1.563,0.013-8.726,0.016-10.003c0-0.263,0.389-0.264,0.389,0
		c0.002,1.277,0.008,8.439,0.015,10.003c0.002,1.113,0.501,1.711,1.384,1.694c0.835-0.017,1.325-0.631,1.325-1.682
		c0-5.966,0.009-18.081,0.009-18.334c0-0.383,0.543-0.486,0.543-0.015c0.016,2.013,0,6.433,0.016,6.628
		c0.056,0.64,0.494,1.054,1.098,1.052c0.597-0.001,1.059-0.42,1.087-1.063c0.034-0.785,0.015-6.824,0.011-9.058
		C45.761,6.173,44.919,5.331,43.308,5.325z"/>
	<path d="M40.047,4.351c1.253,0.014,2.224-0.92,2.232-2.145C42.287,0.983,41.314-0.001,40.097,0s-2.213,0.99-2.206,2.192
		C37.898,3.369,38.867,4.337,40.047,4.351z"/>
	<path d="M51.673,17.896c0.605,0.001,1.044-0.412,1.098-1.052c0.017-0.195,0-4.615,0.017-6.628c0-0.471,0.544-0.368,0.544,0.015
		c0,0.253,0.009,12.368,0.009,18.334c0,1.051,0.489,1.665,1.325,1.682c0.883,0.018,1.381-0.581,1.384-1.694
		c0.004-1.563,0.013-8.726,0.015-10.003c0-0.263,0.389-0.264,0.389,0c0,1.277,0.009,8.439,0.013,10.003
		c0.005,1.113,0.501,1.711,1.386,1.694c0.836-0.017,1.323-0.631,1.323-1.682c0.002-5.966,0.011-18.081,0.011-18.334
		c0-0.383,0.542-0.486,0.542-0.015c0.017,2.013,0,6.433,0.017,6.628c0.056,0.64,0.492,1.054,1.098,1.052
		c0.598-0.001,1.06-0.42,1.087-1.063c0.034-0.785,0.016-6.824,0.011-9.058c-0.006-1.603-0.849-2.445-2.457-2.451
		c-0.531-0.001-5.918-0.001-6.449,0c-1.608,0.006-2.451,0.848-2.455,2.451c-0.007,2.234-0.023,8.273,0.011,9.058
		C50.613,17.477,51.075,17.896,51.673,17.896z"/>
	<path d="M56.221,4.351c1.25,0.014,2.221-0.92,2.229-2.145C58.461,0.983,57.485-0.001,56.27,0c-1.218,0.001-2.215,0.99-2.206,2.192
		C54.072,3.369,55.041,4.337,56.221,4.351z"/>
	<path d="M10.965,39.008c-0.53-0.001-5.917-0.001-6.448,0c-1.61,0.006-2.452,0.848-2.457,2.45c-0.005,2.234-0.024,8.273,0.01,9.059
		c0.027,0.643,0.489,1.062,1.086,1.063c0.605,0,1.043-0.412,1.098-1.053c0.017-0.195,0-4.615,0.017-6.628
		c0-0.472,0.542-0.368,0.542,0.015c0,0.253,0.008,12.368,0.01,18.334c0,1.051,0.489,1.664,1.324,1.682
		c0.884,0.018,1.381-0.58,1.384-1.694c0.005-1.563,0.013-8.725,0.015-10.002c0-0.263,0.388-0.265,0.388,0
		c0.001,1.277,0.01,8.439,0.015,10.002c0.003,1.114,0.5,1.712,1.384,1.694c0.835-0.018,1.324-0.631,1.324-1.682
		c0.001-5.966,0.01-18.081,0.01-18.334c0-0.383,0.542-0.486,0.542-0.015c0.017,2.013,0,6.433,0.017,6.628
		c0.055,0.641,0.493,1.053,1.098,1.053c0.597-0.002,1.059-0.421,1.086-1.063c0.035-0.785,0.016-6.824,0.01-9.059
		C13.417,39.855,12.575,39.014,10.965,39.008z"/>
	<path d="M9.935,35.889c0.009-1.223-0.964-2.207-2.181-2.206c-1.218,0.001-2.214,0.989-2.206,2.192
		c0.008,1.177,0.977,2.146,2.157,2.159C8.956,38.048,9.926,37.113,9.935,35.889z"/>
	<path d="M27.137,39.008c-0.531-0.001-5.917-0.001-6.448,0c-1.609,0.006-2.452,0.848-2.456,2.45
		c-0.005,2.234-0.024,8.273,0.01,9.059c0.028,0.643,0.489,1.062,1.086,1.063c0.605,0,1.043-0.412,1.098-1.053
		c0.017-0.195,0-4.615,0.017-6.628c0-0.472,0.542-0.368,0.542,0.015c0,0.253,0.009,12.368,0.01,18.334
		c0,1.051,0.489,1.664,1.324,1.682c0.884,0.018,1.381-0.58,1.385-1.694c0.005-1.563,0.013-8.725,0.015-10.002
		c0-0.263,0.388-0.265,0.388,0c0.001,1.277,0.01,8.439,0.014,10.002c0.003,1.114,0.5,1.712,1.385,1.694
		c0.835-0.018,1.324-0.631,1.324-1.682c0.001-5.966,0.01-18.081,0.01-18.334c0-0.383,0.542-0.486,0.542-0.015
		c0.017,2.013,0,6.433,0.017,6.628c0.055,0.641,0.492,1.053,1.098,1.053c0.597-0.002,1.059-0.421,1.086-1.063
		c0.034-0.785,0.016-6.824,0.01-9.059C29.589,39.855,28.747,39.014,27.137,39.008z"/>
	<path d="M26.106,35.889c0.009-1.223-0.964-2.207-2.181-2.206c-1.219,0.001-2.214,0.989-2.206,2.192
		c0.007,1.177,0.976,2.146,2.157,2.159C25.127,38.048,26.098,37.113,26.106,35.889z"/>
	<path d="M43.308,39.008c-0.53-0.001-5.916-0.001-6.447,0c-1.608,0.006-2.45,0.848-2.456,2.45c-0.006,2.234-0.023,8.273,0.011,9.059
		c0.026,0.643,0.489,1.062,1.086,1.063c0.605,0,1.043-0.412,1.098-1.053c0.018-0.195,0-4.615,0.018-6.628
		c0-0.472,0.542-0.368,0.542,0.015c0,0.253,0.009,12.368,0.009,18.334c0,1.051,0.489,1.664,1.325,1.682
		c0.883,0.018,1.381-0.58,1.383-1.694c0.007-1.563,0.013-8.725,0.016-10.002c0-0.263,0.389-0.265,0.389,0
		c0.002,1.277,0.008,8.439,0.015,10.002c0.002,1.114,0.501,1.712,1.384,1.694c0.835-0.018,1.325-0.631,1.325-1.682
		c0-5.966,0.009-18.081,0.009-18.334c0-0.383,0.543-0.486,0.543-0.015c0.016,2.013,0,6.433,0.016,6.628
		c0.056,0.641,0.494,1.053,1.098,1.053c0.597-0.002,1.059-0.421,1.087-1.063c0.034-0.785,0.015-6.824,0.011-9.059
		C45.761,39.855,44.919,39.014,43.308,39.008z"/>
	<path d="M42.279,35.889c0.008-1.223-0.965-2.207-2.183-2.206s-2.213,0.989-2.206,2.192c0.008,1.177,0.977,2.146,2.156,2.159
		C41.3,38.048,42.271,37.113,42.279,35.889z"/>
	<path d="M59.481,39.008c-0.531-0.001-5.918-0.001-6.449,0c-1.608,0.006-2.451,0.848-2.455,2.45
		c-0.007,2.234-0.023,8.273,0.011,9.059c0.025,0.643,0.487,1.062,1.085,1.063c0.605,0,1.044-0.412,1.098-1.053
		c0.017-0.195,0-4.615,0.017-6.628c0-0.472,0.544-0.368,0.544,0.015c0,0.253,0.009,12.368,0.009,18.334
		c0,1.051,0.489,1.664,1.325,1.682c0.883,0.018,1.381-0.58,1.384-1.694c0.004-1.563,0.013-8.725,0.015-10.002
		c0-0.263,0.389-0.265,0.389,0c0,1.277,0.009,8.439,0.013,10.002c0.005,1.114,0.501,1.712,1.386,1.694
		c0.836-0.018,1.323-0.631,1.323-1.682c0.002-5.966,0.011-18.081,0.011-18.334c0-0.383,0.542-0.486,0.542-0.015
		c0.017,2.013,0,6.433,0.017,6.628c0.056,0.641,0.492,1.053,1.098,1.053c0.598-0.002,1.06-0.421,1.087-1.063
		c0.034-0.785,0.016-6.824,0.011-9.059C61.933,39.855,61.09,39.014,59.481,39.008z"/>
	<path d="M56.27,33.683c-1.218,0.001-2.215,0.989-2.206,2.192c0.009,1.177,0.978,2.146,2.157,2.159
		c1.25,0.014,2.221-0.921,2.229-2.146C58.461,34.666,57.485,33.682,56.27,33.683z"/>
</g>
</svg>
