<?xml version="1.0" encoding="iso-8859-1"?>
<!-- Generator: Adobe Illustrator 16.0.4, SVG Export Plug-In . SVG Version: 6.00 Build 0)  -->
<!DOCTYPE svg PUBLIC "-//W3C//DTD SVG 1.1//EN" "http://www.w3.org/Graphics/SVG/1.1/DTD/svg11.dtd">
<svg version="1.1" id="Capa_1" xmlns="http://www.w3.org/2000/svg" xmlns:xlink="http://www.w3.org/1999/xlink" x="0px" y="0px"
	 width="28.117px" height="35px" viewBox="0 0 28.117 35" style="enable-background:new 0 0 28.117 35;" xml:space="preserve">
<g>
	<path d="M14.069,20.215c5.571,0,10.105-4.533,10.105-10.105C24.174,4.531,19.64,0,14.069,0C8.493,0,3.959,4.531,3.959,10.109
		C3.958,15.682,8.493,20.215,14.069,20.215z M18.468,3.637c0.332,2.309,2.062,5.582,3.827,7.201
		c-0.374,4.217-3.917,7.537-8.227,7.537c-3.297,0-6.141-1.945-7.468-4.741c1.444,1.788,3.826,3.011,6.558,3.167
		c0.146,0.018,0.295,0.031,0.452,0.031c0.046,0,0.09-0.004,0.135-0.006c0.003,0,0.005,0,0.008,0c0.922-0.037,1.65-0.406,1.65-0.863
		c0-0.48-0.803-0.871-1.793-0.871c-0.99,0-1.792,0.391-1.792,0.871c0,0.043,0.014,0.082,0.025,0.125
		c-3.344-0.689-5.859-3.137-6.038-6.094C5.82,8.934,6.033,7.919,6.413,6.992C8.689,6.787,18.042,4.912,18.468,3.637z"/>
	<path d="M21.679,18.482c-2.006,1.822-4.652,2.944-7.559,2.963v-0.006c-0.023,0-0.04,0.006-0.062,0.006
		c-0.018,0-0.037-0.006-0.057-0.006v0.006c-2.913-0.019-5.56-1.141-7.56-2.963C2.775,19.166,0,22.371,0,26.234V35h14.001h0.119
		h13.997v-8.766C28.118,22.371,25.341,19.166,21.679,18.482z"/>
</g>
<g>
</g>
<g>
</g>
<g>
</g>
<g>
</g>
<g>
</g>
<g>
</g>
<g>
</g>
<g>
</g>
<g>
</g>
<g>
</g>
<g>
</g>
<g>
</g>
<g>
</g>
<g>
</g>
<g>
</g>
</svg>
