<?xml version="1.0" encoding="iso-8859-1"?>
<!-- Generator: Adobe Illustrator 16.0.0, SVG Export Plug-In . SVG Version: 6.00 Build 0)  -->
<!DOCTYPE svg PUBLIC "-//W3C//DTD SVG 1.1//EN" "http://www.w3.org/Graphics/SVG/1.1/DTD/svg11.dtd">
<svg version="1.1" id="Layer_1" xmlns="http://www.w3.org/2000/svg" xmlns:xlink="http://www.w3.org/1999/xlink" x="0px" y="0px"
	 width="29.271px" height="24.028px" viewBox="0 0 29.271 24.028" style="enable-background:new 0 0 29.271 24.028;"
	 xml:space="preserve">
<g>
	<path d="M29.271,0H0v21.347h10.521l-4.175,1.756v0.925h16.225v-0.925l-4.174-1.756h10.874V0z M26.968,17.82H2.305V2.917h24.663
		V17.82z"/>
	<path d="M7.076,14.098h1.829l0.242,0.822h1.836L8.889,9.17H7.157l-2.118,5.75h1.78L7.076,14.098z M8.02,11.094h0.016l0.516,1.771
		H7.464L8.02,11.094z"/>
	<path d="M16.749,10.282c0.24-0.075,0.456-0.186,0.643-0.331c0.189-0.144,0.341-0.326,0.456-0.543
		c0.115-0.219,0.173-0.471,0.173-0.761c0-0.21-0.027-0.395-0.083-0.555c-0.058-0.162-0.133-0.3-0.223-0.415
		c-0.092-0.116-0.197-0.211-0.318-0.288c-0.121-0.074-0.245-0.132-0.375-0.175c0.215-0.119,0.388-0.263,0.516-0.436
		c0.13-0.171,0.194-0.403,0.194-0.693c0-0.145-0.024-0.302-0.072-0.471c-0.05-0.168-0.142-0.325-0.279-0.471
		c-0.136-0.144-0.324-0.265-0.563-0.358c-0.238-0.093-0.546-0.141-0.922-0.141h-3.149v5.751h3.263
		C16.259,10.394,16.506,10.357,16.749,10.282z M14.518,6.013h0.934c0.183,0,0.329,0.029,0.439,0.088
		c0.109,0.06,0.165,0.161,0.165,0.306c0,0.188-0.054,0.314-0.161,0.379c-0.107,0.065-0.255,0.097-0.443,0.097h-0.934V6.013z
		 M15.556,9.025h-1.038V7.954h1.111c0.413,0,0.621,0.175,0.621,0.524c0,0.112-0.02,0.203-0.058,0.273s-0.088,0.125-0.152,0.167
		c-0.064,0.039-0.14,0.067-0.223,0.084C15.734,9.016,15.646,9.025,15.556,9.025z"/>
	<path d="M19.884,14.686c0.25,0.269,0.554,0.481,0.915,0.636c0.359,0.157,0.772,0.234,1.239,0.234c0.419,0,0.793-0.07,1.12-0.208
		c0.327-0.14,0.603-0.324,0.825-0.553c0.224-0.228,0.392-0.484,0.508-0.769c0.114-0.284,0.173-0.572,0.173-0.863h-1.739
		c-0.027,0.135-0.063,0.263-0.108,0.379c-0.047,0.118-0.106,0.221-0.177,0.307c-0.072,0.085-0.162,0.152-0.266,0.202
		c-0.106,0.047-0.233,0.072-0.385,0.072c-0.209,0-0.384-0.046-0.522-0.136c-0.139-0.093-0.252-0.213-0.334-0.363
		c-0.083-0.151-0.145-0.32-0.183-0.508c-0.037-0.188-0.056-0.379-0.056-0.572c0-0.193,0.019-0.383,0.056-0.572
		c0.038-0.188,0.1-0.358,0.183-0.507c0.082-0.151,0.195-0.271,0.334-0.363s0.313-0.138,0.522-0.138c0.183,0,0.333,0.036,0.448,0.105
		c0.115,0.069,0.207,0.15,0.276,0.241c0.071,0.091,0.119,0.185,0.146,0.278c0.027,0.094,0.046,0.167,0.058,0.222h1.724
		c-0.076-0.726-0.328-1.286-0.761-1.68c-0.434-0.395-1.047-0.595-1.842-0.6c-0.445,0-0.847,0.072-1.204,0.218
		c-0.355,0.144-0.662,0.349-0.918,0.611c-0.254,0.263-0.451,0.579-0.588,0.95c-0.136,0.371-0.204,0.783-0.204,1.232
		c0,0.424,0.063,0.819,0.192,1.188C19.445,14.099,19.634,14.418,19.884,14.686z"/>
</g>
<g>
</g>
<g>
</g>
<g>
</g>
<g>
</g>
<g>
</g>
<g>
</g>
<g>
</g>
<g>
</g>
<g>
</g>
<g>
</g>
<g>
</g>
<g>
</g>
<g>
</g>
<g>
</g>
<g>
</g>
</svg>
